<mxfile host="app.diagrams.net" modified="2023-11-22T03:21:55.035Z" agent="Mozilla/5.0 (Macintosh; Intel Mac OS X 10_15_7) AppleWebKit/537.36 (KHTML, like Gecko) Chrome/119.0.0.0 Safari/537.36" etag="Io_QeILOEbV1OZpKEDCc" version="22.1.3" type="github">
  <diagram id="C5RBs43oDa-KdzZeNtuy" name="Page-1">
    <mxGraphModel dx="1434" dy="716" grid="1" gridSize="10" guides="1" tooltips="1" connect="1" arrows="1" fold="1" page="1" pageScale="1" pageWidth="827" pageHeight="1169" math="1" shadow="0">
      <root>
        <mxCell id="WIyWlLk6GJQsqaUBKTNV-0" />
        <mxCell id="WIyWlLk6GJQsqaUBKTNV-1" parent="WIyWlLk6GJQsqaUBKTNV-0" />
        <mxCell id="El6n9iGaWaCwRH9-0ciH-71" style="edgeStyle=orthogonalEdgeStyle;rounded=0;orthogonalLoop=1;jettySize=auto;html=1;entryX=0.5;entryY=0;entryDx=0;entryDy=0;" edge="1" parent="WIyWlLk6GJQsqaUBKTNV-1" source="El6n9iGaWaCwRH9-0ciH-69" target="El6n9iGaWaCwRH9-0ciH-72">
          <mxGeometry relative="1" as="geometry">
            <mxPoint x="370" y="1500" as="targetPoint" />
          </mxGeometry>
        </mxCell>
        <mxCell id="El6n9iGaWaCwRH9-0ciH-69" value="" style="rounded=0;whiteSpace=wrap;html=1;textOpacity=1;labelBorderColor=#FF6666;labelBackgroundColor=#FF6666;strokeColor=#FF6666;" vertex="1" parent="WIyWlLk6GJQsqaUBKTNV-1">
          <mxGeometry x="80" y="230" width="580" height="1190" as="geometry" />
        </mxCell>
        <mxCell id="El6n9iGaWaCwRH9-0ciH-1" value="" style="edgeStyle=orthogonalEdgeStyle;rounded=0;orthogonalLoop=1;jettySize=auto;html=1;" edge="1" parent="WIyWlLk6GJQsqaUBKTNV-1" source="WIyWlLk6GJQsqaUBKTNV-3" target="El6n9iGaWaCwRH9-0ciH-0">
          <mxGeometry relative="1" as="geometry" />
        </mxCell>
        <mxCell id="WIyWlLk6GJQsqaUBKTNV-3" value="脚本执行" style="rounded=1;whiteSpace=wrap;html=1;fontSize=12;glass=0;strokeWidth=1;shadow=0;" parent="WIyWlLk6GJQsqaUBKTNV-1" vertex="1">
          <mxGeometry x="160" y="80" width="120" height="40" as="geometry" />
        </mxCell>
        <mxCell id="El6n9iGaWaCwRH9-0ciH-10" style="edgeStyle=orthogonalEdgeStyle;rounded=0;orthogonalLoop=1;jettySize=auto;html=1;entryX=0;entryY=0.5;entryDx=0;entryDy=0;" edge="1" parent="WIyWlLk6GJQsqaUBKTNV-1" source="WIyWlLk6GJQsqaUBKTNV-6" target="El6n9iGaWaCwRH9-0ciH-9">
          <mxGeometry relative="1" as="geometry" />
        </mxCell>
        <mxCell id="El6n9iGaWaCwRH9-0ciH-11" value="yes" style="edgeLabel;html=1;align=center;verticalAlign=middle;resizable=0;points=[];" vertex="1" connectable="0" parent="El6n9iGaWaCwRH9-0ciH-10">
          <mxGeometry x="-0.203" y="-1" relative="1" as="geometry">
            <mxPoint as="offset" />
          </mxGeometry>
        </mxCell>
        <mxCell id="El6n9iGaWaCwRH9-0ciH-14" value="" style="edgeStyle=orthogonalEdgeStyle;rounded=0;orthogonalLoop=1;jettySize=auto;html=1;" edge="1" parent="WIyWlLk6GJQsqaUBKTNV-1" source="WIyWlLk6GJQsqaUBKTNV-6" target="El6n9iGaWaCwRH9-0ciH-13">
          <mxGeometry relative="1" as="geometry" />
        </mxCell>
        <mxCell id="El6n9iGaWaCwRH9-0ciH-18" value="no" style="edgeLabel;html=1;align=center;verticalAlign=middle;resizable=0;points=[];" vertex="1" connectable="0" parent="El6n9iGaWaCwRH9-0ciH-14">
          <mxGeometry x="-0.2" y="1" relative="1" as="geometry">
            <mxPoint as="offset" />
          </mxGeometry>
        </mxCell>
        <mxCell id="WIyWlLk6GJQsqaUBKTNV-6" value="实例LockMode!=Unlock并且LockReason==instance_expired" style="rhombus;whiteSpace=wrap;html=1;shadow=0;fontFamily=Helvetica;fontSize=12;align=center;strokeWidth=1;spacing=6;spacingTop=-4;" parent="WIyWlLk6GJQsqaUBKTNV-1" vertex="1">
          <mxGeometry x="92.5" y="330" width="255" height="130" as="geometry" />
        </mxCell>
        <mxCell id="El6n9iGaWaCwRH9-0ciH-5" value="" style="edgeStyle=orthogonalEdgeStyle;rounded=0;orthogonalLoop=1;jettySize=auto;html=1;" edge="1" parent="WIyWlLk6GJQsqaUBKTNV-1" source="WIyWlLk6GJQsqaUBKTNV-7" target="WIyWlLk6GJQsqaUBKTNV-6">
          <mxGeometry relative="1" as="geometry" />
        </mxCell>
        <mxCell id="WIyWlLk6GJQsqaUBKTNV-7" value="循环实例数据" style="rounded=1;whiteSpace=wrap;html=1;fontSize=12;glass=0;strokeWidth=1;shadow=0;" parent="WIyWlLk6GJQsqaUBKTNV-1" vertex="1">
          <mxGeometry x="160" y="250" width="120" height="40" as="geometry" />
        </mxCell>
        <mxCell id="El6n9iGaWaCwRH9-0ciH-4" value="" style="edgeStyle=orthogonalEdgeStyle;rounded=0;orthogonalLoop=1;jettySize=auto;html=1;" edge="1" parent="WIyWlLk6GJQsqaUBKTNV-1" source="El6n9iGaWaCwRH9-0ciH-0" target="WIyWlLk6GJQsqaUBKTNV-7">
          <mxGeometry relative="1" as="geometry" />
        </mxCell>
        <mxCell id="El6n9iGaWaCwRH9-0ciH-0" value="读取策略配置csv文件、获取实例数据" style="rounded=1;whiteSpace=wrap;html=1;fontSize=12;glass=0;strokeWidth=1;shadow=0;" vertex="1" parent="WIyWlLk6GJQsqaUBKTNV-1">
          <mxGeometry x="160" y="170" width="120" height="40" as="geometry" />
        </mxCell>
        <mxCell id="El6n9iGaWaCwRH9-0ciH-9" value="不检查" style="rounded=1;whiteSpace=wrap;html=1;fontSize=12;glass=0;strokeWidth=1;shadow=0;" vertex="1" parent="WIyWlLk6GJQsqaUBKTNV-1">
          <mxGeometry x="420" y="375" width="120" height="40" as="geometry" />
        </mxCell>
        <mxCell id="El6n9iGaWaCwRH9-0ciH-16" value="" style="edgeStyle=orthogonalEdgeStyle;rounded=0;orthogonalLoop=1;jettySize=auto;html=1;" edge="1" parent="WIyWlLk6GJQsqaUBKTNV-1" source="El6n9iGaWaCwRH9-0ciH-13" target="El6n9iGaWaCwRH9-0ciH-15">
          <mxGeometry relative="1" as="geometry" />
        </mxCell>
        <mxCell id="El6n9iGaWaCwRH9-0ciH-17" value="no" style="edgeLabel;html=1;align=center;verticalAlign=middle;resizable=0;points=[];" vertex="1" connectable="0" parent="El6n9iGaWaCwRH9-0ciH-16">
          <mxGeometry x="0.0962" y="-2" relative="1" as="geometry">
            <mxPoint as="offset" />
          </mxGeometry>
        </mxCell>
        <mxCell id="El6n9iGaWaCwRH9-0ciH-20" value="" style="edgeStyle=orthogonalEdgeStyle;rounded=0;orthogonalLoop=1;jettySize=auto;html=1;" edge="1" parent="WIyWlLk6GJQsqaUBKTNV-1" source="El6n9iGaWaCwRH9-0ciH-13" target="El6n9iGaWaCwRH9-0ciH-19">
          <mxGeometry relative="1" as="geometry" />
        </mxCell>
        <mxCell id="El6n9iGaWaCwRH9-0ciH-21" value="yes" style="edgeLabel;html=1;align=center;verticalAlign=middle;resizable=0;points=[];" vertex="1" connectable="0" parent="El6n9iGaWaCwRH9-0ciH-20">
          <mxGeometry x="0.24" relative="1" as="geometry">
            <mxPoint as="offset" />
          </mxGeometry>
        </mxCell>
        <mxCell id="El6n9iGaWaCwRH9-0ciH-13" value="环境在默认配置中，并且BAK不在desc中，restore不再desc中" style="rhombus;whiteSpace=wrap;html=1;shadow=0;fontFamily=Helvetica;fontSize=12;align=center;strokeWidth=1;spacing=6;spacingTop=-4;" vertex="1" parent="WIyWlLk6GJQsqaUBKTNV-1">
          <mxGeometry x="130" y="500" width="180" height="100" as="geometry" />
        </mxCell>
        <mxCell id="El6n9iGaWaCwRH9-0ciH-15" value="不检查" style="rounded=1;whiteSpace=wrap;html=1;fontSize=12;glass=0;strokeWidth=1;shadow=0;" vertex="1" parent="WIyWlLk6GJQsqaUBKTNV-1">
          <mxGeometry x="420" y="530" width="120" height="40" as="geometry" />
        </mxCell>
        <mxCell id="El6n9iGaWaCwRH9-0ciH-24" style="edgeStyle=orthogonalEdgeStyle;rounded=0;orthogonalLoop=1;jettySize=auto;html=1;exitX=1;exitY=0.5;exitDx=0;exitDy=0;" edge="1" parent="WIyWlLk6GJQsqaUBKTNV-1" source="El6n9iGaWaCwRH9-0ciH-19" target="El6n9iGaWaCwRH9-0ciH-23">
          <mxGeometry relative="1" as="geometry" />
        </mxCell>
        <mxCell id="El6n9iGaWaCwRH9-0ciH-25" value="no" style="edgeLabel;html=1;align=center;verticalAlign=middle;resizable=0;points=[];" vertex="1" connectable="0" parent="El6n9iGaWaCwRH9-0ciH-24">
          <mxGeometry x="-0.1111" y="4" relative="1" as="geometry">
            <mxPoint as="offset" />
          </mxGeometry>
        </mxCell>
        <mxCell id="El6n9iGaWaCwRH9-0ciH-27" value="" style="edgeStyle=orthogonalEdgeStyle;rounded=0;orthogonalLoop=1;jettySize=auto;html=1;" edge="1" parent="WIyWlLk6GJQsqaUBKTNV-1" source="El6n9iGaWaCwRH9-0ciH-19" target="El6n9iGaWaCwRH9-0ciH-26">
          <mxGeometry relative="1" as="geometry" />
        </mxCell>
        <mxCell id="El6n9iGaWaCwRH9-0ciH-28" value="yes" style="edgeLabel;html=1;align=center;verticalAlign=middle;resizable=0;points=[];" vertex="1" connectable="0" parent="El6n9iGaWaCwRH9-0ciH-27">
          <mxGeometry x="-0.32" y="1" relative="1" as="geometry">
            <mxPoint as="offset" />
          </mxGeometry>
        </mxCell>
        <mxCell id="El6n9iGaWaCwRH9-0ciH-19" value="实例今天是否需要进行备份检查" style="rhombus;whiteSpace=wrap;html=1;shadow=0;fontFamily=Helvetica;fontSize=12;align=center;strokeWidth=1;spacing=6;spacingTop=-4;" vertex="1" parent="WIyWlLk6GJQsqaUBKTNV-1">
          <mxGeometry x="130" y="630" width="180" height="100" as="geometry" />
        </mxCell>
        <mxCell id="El6n9iGaWaCwRH9-0ciH-23" value="不检查" style="rounded=1;whiteSpace=wrap;html=1;fontSize=12;glass=0;strokeWidth=1;shadow=0;" vertex="1" parent="WIyWlLk6GJQsqaUBKTNV-1">
          <mxGeometry x="420" y="660" width="120" height="40" as="geometry" />
        </mxCell>
        <mxCell id="El6n9iGaWaCwRH9-0ciH-31" value="no" style="edgeStyle=orthogonalEdgeStyle;rounded=0;orthogonalLoop=1;jettySize=auto;html=1;exitX=1;exitY=0.5;exitDx=0;exitDy=0;" edge="1" parent="WIyWlLk6GJQsqaUBKTNV-1" source="El6n9iGaWaCwRH9-0ciH-26" target="El6n9iGaWaCwRH9-0ciH-30">
          <mxGeometry relative="1" as="geometry" />
        </mxCell>
        <mxCell id="El6n9iGaWaCwRH9-0ciH-35" style="edgeStyle=orthogonalEdgeStyle;rounded=0;orthogonalLoop=1;jettySize=auto;html=1;exitX=0.5;exitY=1;exitDx=0;exitDy=0;" edge="1" parent="WIyWlLk6GJQsqaUBKTNV-1" source="El6n9iGaWaCwRH9-0ciH-26" target="El6n9iGaWaCwRH9-0ciH-36">
          <mxGeometry relative="1" as="geometry">
            <mxPoint x="220" y="920" as="targetPoint" />
          </mxGeometry>
        </mxCell>
        <mxCell id="El6n9iGaWaCwRH9-0ciH-26" value="检查策略配置是否和环境一致" style="rhombus;whiteSpace=wrap;html=1;shadow=0;fontFamily=Helvetica;fontSize=12;align=center;strokeWidth=1;spacing=6;spacingTop=-4;" vertex="1" parent="WIyWlLk6GJQsqaUBKTNV-1">
          <mxGeometry x="130" y="765" width="180" height="100" as="geometry" />
        </mxCell>
        <mxCell id="El6n9iGaWaCwRH9-0ciH-33" style="edgeStyle=orthogonalEdgeStyle;rounded=0;orthogonalLoop=1;jettySize=auto;html=1;" edge="1" parent="WIyWlLk6GJQsqaUBKTNV-1" source="El6n9iGaWaCwRH9-0ciH-30" target="El6n9iGaWaCwRH9-0ciH-32">
          <mxGeometry relative="1" as="geometry" />
        </mxCell>
        <mxCell id="El6n9iGaWaCwRH9-0ciH-30" value="备份策略异常数量+1" style="rounded=1;whiteSpace=wrap;html=1;fontSize=12;glass=0;strokeWidth=1;shadow=0;" vertex="1" parent="WIyWlLk6GJQsqaUBKTNV-1">
          <mxGeometry x="414" y="795" width="120" height="40" as="geometry" />
        </mxCell>
        <mxCell id="El6n9iGaWaCwRH9-0ciH-32" value="信息写入附件" style="rounded=1;whiteSpace=wrap;html=1;" vertex="1" parent="WIyWlLk6GJQsqaUBKTNV-1">
          <mxGeometry x="730" y="835" width="20" height="510" as="geometry" />
        </mxCell>
        <mxCell id="El6n9iGaWaCwRH9-0ciH-38" style="edgeStyle=orthogonalEdgeStyle;rounded=0;orthogonalLoop=1;jettySize=auto;html=1;exitX=0.5;exitY=1;exitDx=0;exitDy=0;" edge="1" parent="WIyWlLk6GJQsqaUBKTNV-1" source="El6n9iGaWaCwRH9-0ciH-36" target="El6n9iGaWaCwRH9-0ciH-37">
          <mxGeometry relative="1" as="geometry" />
        </mxCell>
        <mxCell id="El6n9iGaWaCwRH9-0ciH-36" value="获取24h内的备份数据" style="rounded=1;whiteSpace=wrap;html=1;fontSize=12;glass=0;strokeWidth=1;shadow=0;" vertex="1" parent="WIyWlLk6GJQsqaUBKTNV-1">
          <mxGeometry x="160" y="940" width="120" height="40" as="geometry" />
        </mxCell>
        <mxCell id="El6n9iGaWaCwRH9-0ciH-40" style="edgeStyle=orthogonalEdgeStyle;rounded=0;orthogonalLoop=1;jettySize=auto;html=1;exitX=1;exitY=0.5;exitDx=0;exitDy=0;" edge="1" parent="WIyWlLk6GJQsqaUBKTNV-1" source="El6n9iGaWaCwRH9-0ciH-37" target="El6n9iGaWaCwRH9-0ciH-39">
          <mxGeometry relative="1" as="geometry" />
        </mxCell>
        <mxCell id="El6n9iGaWaCwRH9-0ciH-45" value="no" style="edgeLabel;html=1;align=center;verticalAlign=middle;resizable=0;points=[];" vertex="1" connectable="0" parent="El6n9iGaWaCwRH9-0ciH-40">
          <mxGeometry y="-3" relative="1" as="geometry">
            <mxPoint as="offset" />
          </mxGeometry>
        </mxCell>
        <mxCell id="El6n9iGaWaCwRH9-0ciH-47" style="edgeStyle=orthogonalEdgeStyle;rounded=0;orthogonalLoop=1;jettySize=auto;html=1;exitX=0.5;exitY=1;exitDx=0;exitDy=0;" edge="1" parent="WIyWlLk6GJQsqaUBKTNV-1" source="El6n9iGaWaCwRH9-0ciH-37" target="El6n9iGaWaCwRH9-0ciH-48">
          <mxGeometry relative="1" as="geometry">
            <mxPoint x="220" y="1180" as="targetPoint" />
          </mxGeometry>
        </mxCell>
        <mxCell id="El6n9iGaWaCwRH9-0ciH-37" value="备份是否生成" style="rhombus;whiteSpace=wrap;html=1;shadow=0;fontFamily=Helvetica;fontSize=12;align=center;strokeWidth=1;spacing=6;spacingTop=-4;" vertex="1" parent="WIyWlLk6GJQsqaUBKTNV-1">
          <mxGeometry x="130" y="1040" width="180" height="100" as="geometry" />
        </mxCell>
        <mxCell id="El6n9iGaWaCwRH9-0ciH-44" value="" style="edgeStyle=orthogonalEdgeStyle;rounded=0;orthogonalLoop=1;jettySize=auto;html=1;" edge="1" parent="WIyWlLk6GJQsqaUBKTNV-1" source="El6n9iGaWaCwRH9-0ciH-39" target="El6n9iGaWaCwRH9-0ciH-32">
          <mxGeometry relative="1" as="geometry" />
        </mxCell>
        <mxCell id="El6n9iGaWaCwRH9-0ciH-39" value="备份缺失数+1" style="rounded=1;whiteSpace=wrap;html=1;fontSize=12;glass=0;strokeWidth=1;shadow=0;" vertex="1" parent="WIyWlLk6GJQsqaUBKTNV-1">
          <mxGeometry x="415" y="1070" width="130" height="40" as="geometry" />
        </mxCell>
        <mxCell id="El6n9iGaWaCwRH9-0ciH-50" value="备份失败" style="edgeStyle=orthogonalEdgeStyle;rounded=0;orthogonalLoop=1;jettySize=auto;html=1;exitX=1;exitY=0.5;exitDx=0;exitDy=0;" edge="1" parent="WIyWlLk6GJQsqaUBKTNV-1" source="El6n9iGaWaCwRH9-0ciH-48" target="El6n9iGaWaCwRH9-0ciH-49">
          <mxGeometry relative="1" as="geometry" />
        </mxCell>
        <mxCell id="El6n9iGaWaCwRH9-0ciH-54" style="edgeStyle=orthogonalEdgeStyle;rounded=0;orthogonalLoop=1;jettySize=auto;html=1;exitX=0.5;exitY=1;exitDx=0;exitDy=0;entryX=0;entryY=0.5;entryDx=0;entryDy=0;" edge="1" parent="WIyWlLk6GJQsqaUBKTNV-1" source="El6n9iGaWaCwRH9-0ciH-48" target="El6n9iGaWaCwRH9-0ciH-52">
          <mxGeometry relative="1" as="geometry" />
        </mxCell>
        <mxCell id="El6n9iGaWaCwRH9-0ciH-55" value="备份进行中" style="edgeLabel;html=1;align=center;verticalAlign=middle;resizable=0;points=[];" vertex="1" connectable="0" parent="El6n9iGaWaCwRH9-0ciH-54">
          <mxGeometry x="0.0105" y="2" relative="1" as="geometry">
            <mxPoint as="offset" />
          </mxGeometry>
        </mxCell>
        <mxCell id="El6n9iGaWaCwRH9-0ciH-59" style="edgeStyle=orthogonalEdgeStyle;rounded=0;orthogonalLoop=1;jettySize=auto;html=1;exitX=0.5;exitY=1;exitDx=0;exitDy=0;entryX=0;entryY=0.5;entryDx=0;entryDy=0;" edge="1" parent="WIyWlLk6GJQsqaUBKTNV-1" source="El6n9iGaWaCwRH9-0ciH-48" target="El6n9iGaWaCwRH9-0ciH-58">
          <mxGeometry relative="1" as="geometry" />
        </mxCell>
        <mxCell id="El6n9iGaWaCwRH9-0ciH-48" value="备份状态判断" style="rhombus;whiteSpace=wrap;html=1;shadow=0;fontFamily=Helvetica;fontSize=12;align=center;strokeWidth=1;spacing=6;spacingTop=-4;" vertex="1" parent="WIyWlLk6GJQsqaUBKTNV-1">
          <mxGeometry x="130" y="1200" width="180" height="100" as="geometry" />
        </mxCell>
        <mxCell id="El6n9iGaWaCwRH9-0ciH-51" style="edgeStyle=orthogonalEdgeStyle;rounded=0;orthogonalLoop=1;jettySize=auto;html=1;exitX=1;exitY=0.5;exitDx=0;exitDy=0;entryX=0;entryY=0.5;entryDx=0;entryDy=0;" edge="1" parent="WIyWlLk6GJQsqaUBKTNV-1" source="El6n9iGaWaCwRH9-0ciH-49" target="El6n9iGaWaCwRH9-0ciH-32">
          <mxGeometry relative="1" as="geometry" />
        </mxCell>
        <mxCell id="El6n9iGaWaCwRH9-0ciH-49" value="备份缺失数+1" style="rounded=1;whiteSpace=wrap;html=1;fontSize=12;glass=0;strokeWidth=1;shadow=0;" vertex="1" parent="WIyWlLk6GJQsqaUBKTNV-1">
          <mxGeometry x="404" y="1230" width="130" height="40" as="geometry" />
        </mxCell>
        <mxCell id="El6n9iGaWaCwRH9-0ciH-57" value="" style="edgeStyle=orthogonalEdgeStyle;rounded=0;orthogonalLoop=1;jettySize=auto;html=1;entryX=0;entryY=0.5;entryDx=0;entryDy=0;" edge="1" parent="WIyWlLk6GJQsqaUBKTNV-1" source="El6n9iGaWaCwRH9-0ciH-52" target="El6n9iGaWaCwRH9-0ciH-32">
          <mxGeometry relative="1" as="geometry" />
        </mxCell>
        <mxCell id="El6n9iGaWaCwRH9-0ciH-52" value="备份进行中数量+1" style="rounded=1;whiteSpace=wrap;html=1;fontSize=12;glass=0;strokeWidth=1;shadow=0;" vertex="1" parent="WIyWlLk6GJQsqaUBKTNV-1">
          <mxGeometry x="404" y="1300" width="130" height="40" as="geometry" />
        </mxCell>
        <mxCell id="El6n9iGaWaCwRH9-0ciH-60" style="edgeStyle=orthogonalEdgeStyle;rounded=0;orthogonalLoop=1;jettySize=auto;html=1;exitX=1;exitY=0.5;exitDx=0;exitDy=0;entryX=0;entryY=0.5;entryDx=0;entryDy=0;" edge="1" parent="WIyWlLk6GJQsqaUBKTNV-1" source="El6n9iGaWaCwRH9-0ciH-58" target="El6n9iGaWaCwRH9-0ciH-32">
          <mxGeometry relative="1" as="geometry" />
        </mxCell>
        <mxCell id="El6n9iGaWaCwRH9-0ciH-58" value="备份成功数量+1" style="rounded=1;whiteSpace=wrap;html=1;fontSize=12;glass=0;strokeWidth=1;shadow=0;" vertex="1" parent="WIyWlLk6GJQsqaUBKTNV-1">
          <mxGeometry x="404" y="1360" width="130" height="40" as="geometry" />
        </mxCell>
        <mxCell id="El6n9iGaWaCwRH9-0ciH-68" value="循环判断逻辑" style="rounded=1;whiteSpace=wrap;html=1;fillColor=#f8cecc;strokeColor=#b85450;" vertex="1" parent="WIyWlLk6GJQsqaUBKTNV-1">
          <mxGeometry x="490" y="270" width="120" height="60" as="geometry" />
        </mxCell>
        <mxCell id="El6n9iGaWaCwRH9-0ciH-72" value="1.统计【备份检童恐盘总数，策略配置异常，快照缺失。快照未完成，快照完成数】数据添加到汇总sheet中&lt;br&gt;2.备份策略导常，备份缺失，备份未完成，添加到邮件正文&lt;br&gt;3.各项数据汇总至对应的附件sheet中【备份情况汇总表，策略配置异常，快照完成，快照缺失，快照未完成，特殊策略】&lt;br&gt;4.添加邮件附件，发送邮件给配置文件中配置的收件人" style="rounded=0;whiteSpace=wrap;html=1;align=left;" vertex="1" parent="WIyWlLk6GJQsqaUBKTNV-1">
          <mxGeometry x="85" y="1480" width="570" height="90" as="geometry" />
        </mxCell>
      </root>
    </mxGraphModel>
  </diagram>
</mxfile>
